<mxfile host="" modified="2020-07-07T21:57:59.664Z" agent="5.0 (Macintosh; Intel Mac OS X 10_15_5) AppleWebKit/537.36 (KHTML, like Gecko) Code/1.46.1 Chrome/78.0.3904.130 Electron/7.3.1 Safari/537.36" etag="gyJNHiCBCG8R87VIyjH7" version="13.1.3">
    <diagram id="6hGFLwfOUW9BJ-s0fimq" name="Page-1">
        <mxGraphModel dx="226" dy="530" grid="1" gridSize="10" guides="1" tooltips="1" connect="1" arrows="1" fold="1" page="1" pageScale="1" pageWidth="827" pageHeight="1169" math="0" shadow="0">
            <root>
                <mxCell id="0"/>
                <mxCell id="1" parent="0"/>
                <mxCell id="2" value="Event&lt;br&gt;id : integer&lt;br&gt;name : string&lt;br&gt;time : string&lt;br&gt;likes : integer&lt;br&gt;user_id : integer&lt;br&gt;location_id :integer" style="rounded=0;whiteSpace=wrap;html=1;" parent="1" vertex="1">
                    <mxGeometry x="320" y="240" width="170" height="195" as="geometry"/>
                </mxCell>
                <mxCell id="3" value="User&lt;br&gt;id: integer&lt;br&gt;name : string&lt;br&gt;username : string&lt;br&gt;password_digest : string&lt;br&gt;bio: string&lt;br&gt;followers : integer&lt;br&gt;avatar : string" style="rounded=0;whiteSpace=wrap;html=1;" parent="1" vertex="1">
                    <mxGeometry x="40" y="240" width="190" height="200" as="geometry"/>
                </mxCell>
                <mxCell id="4" value="Location&lt;br&gt;id : integer&lt;br&gt;city: string&lt;br&gt;country : string&lt;br&gt;longitude : integer&lt;br&gt;latitude : integer&lt;br&gt;avatar : string&lt;br&gt;bio : string" style="rounded=0;whiteSpace=wrap;html=1;" parent="1" vertex="1">
                    <mxGeometry x="610" y="237.5" width="160" height="200" as="geometry"/>
                </mxCell>
                <mxCell id="5" value="" style="edgeStyle=entityRelationEdgeStyle;fontSize=12;html=1;endArrow=ERoneToMany;startArrow=ERmandOne;entryX=0;entryY=0.5;entryDx=0;entryDy=0;endFill=0;exitX=1;exitY=0.5;exitDx=0;exitDy=0;" parent="1" source="3" target="2" edge="1">
                    <mxGeometry width="100" height="100" relative="1" as="geometry">
                        <mxPoint x="170" y="260" as="sourcePoint"/>
                        <mxPoint x="270" y="160" as="targetPoint"/>
                    </mxGeometry>
                </mxCell>
                <mxCell id="6" value="" style="edgeStyle=entityRelationEdgeStyle;fontSize=12;html=1;endArrow=ERmandOne;startArrow=ERoneToMany;entryX=0;entryY=0.5;entryDx=0;entryDy=0;startFill=0;endFill=0;" parent="1" source="2" edge="1">
                    <mxGeometry width="100" height="100" relative="1" as="geometry">
                        <mxPoint x="540" y="337" as="sourcePoint"/>
                        <mxPoint x="610" y="337" as="targetPoint"/>
                    </mxGeometry>
                </mxCell>
            </root>
        </mxGraphModel>
    </diagram>
</mxfile>